<?xml version="1.0" encoding="UTF-8" standalone="no"?>
<!-- Created with Inkscape (http://www.inkscape.org/) -->

<svg
   version="1.1"
   id="svg48"
   width="32.538197"
   height="14.253665"
   viewBox="0 0 32.538196 14.253665"
   sodipodi:docname="alba.pequerul.svg"
   inkscape:version="1.2.2 (b0a8486541, 2022-12-01)"
   xmlns:inkscape="http://www.inkscape.org/namespaces/inkscape"
   xmlns:sodipodi="http://sodipodi.sourceforge.net/DTD/sodipodi-0.dtd"
   xmlns="http://www.w3.org/2000/svg"
   xmlns:svg="http://www.w3.org/2000/svg">
  <defs
     id="defs52">
    <rect
       x="-733.27814"
       y="714.14911"
       width="845.92664"
       height="184.9136"
       id="rect1455" />
    <rect
       x="108.39763"
       y="1162.6178"
       width="161.53374"
       height="21.254438"
       id="rect1449" />
    <rect
       x="-420.83786"
       y="843.80121"
       width="510.10651"
       height="318.81656"
       id="rect1443" />
    <rect
       x="-733.27814"
       y="714.14911"
       width="845.92664"
       height="184.9136"
       id="rect1527" />
    <rect
       x="-733.27814"
       y="714.14911"
       width="845.92664"
       height="184.9136"
       id="rect1541" />
    <rect
       x="-733.27814"
       y="714.14911"
       width="845.92664"
       height="184.9136"
       id="rect1543" />
    <rect
       x="-420.83786"
       y="843.80121"
       width="510.10651"
       height="318.81656"
       id="rect1923" />
    <rect
       x="108.39763"
       y="1162.6178"
       width="161.53374"
       height="21.254438"
       id="rect1925" />
    <rect
       x="-733.27814"
       y="714.14911"
       width="845.92664"
       height="184.9136"
       id="rect1927" />
    <rect
       x="-733.27814"
       y="714.14911"
       width="845.92664"
       height="184.9136"
       id="rect1929" />
  </defs>
  <sodipodi:namedview
     id="namedview50"
     pagecolor="#ffffff"
     bordercolor="#000000"
     borderopacity="0.25"
     inkscape:showpageshadow="2"
     inkscape:pageopacity="0.0"
     inkscape:pagecheckerboard="0"
     inkscape:deskcolor="#d1d1d1"
     showgrid="false"
     inkscape:zoom="10.645973"
     inkscape:cx="25.126872"
     inkscape:cy="-8.4539008"
     inkscape:window-width="1876"
     inkscape:window-height="1011"
     inkscape:window-x="44"
     inkscape:window-y="32"
     inkscape:window-maximized="1"
     inkscape:current-layer="g54" />
  <g
     inkscape:groupmode="layer"
     inkscape:label="Image"
     id="g54"
     transform="translate(733.03734,-765.35386)">
    <text
       xml:space="preserve"
       id="text1441"
       style="white-space:pre;shape-inside:url(#rect1443);display:inline;fill:#e30613;stroke-width:2.26772;stroke-opacity:0.949168" />
    <text
       xml:space="preserve"
       id="text1447"
       style="white-space:pre;shape-inside:url(#rect1449);display:inline;fill:#e30613;stroke-width:2.26772;stroke-opacity:0.949168" />
    <text
       xml:space="preserve"
       id="text1453"
       style="white-space:pre;shape-inside:url(#rect1455);display:inline;fill:#e30613;stroke-width:2.26772;stroke-opacity:0.949168"
       transform="translate(-2.5361702,24.516312)"><tspan
         x="-733.27734"
         y="725.06694"
         id="tspan1999"><tspan
           style="font-size:12px;font-family:'EB Garamond SC';-inkscape-font-specification:'EB Garamond SC, Normal'"
           id="tspan1997">Alba</tspan></tspan></text>
    <text
       xml:space="preserve"
       id="text1525"
       style="white-space:pre;shape-inside:url(#rect1527);display:inline;fill:#e30613;stroke-width:2.26772;stroke-opacity:0.949168"
       transform="translate(-2.5361702,34.516312)"><tspan
         x="-733.27734"
         y="725.06694"
         id="tspan2003"><tspan
           style="font-size:12px;font-family:'EB Garamond SC';-inkscape-font-specification:'EB Garamond SC, Normal'"
           id="tspan2001">Pequerul
</tspan></tspan></text>
    <g
       transform="translate(0,42)"
       id="text1907"
       style="white-space:pre;shape-inside:url(#rect1923);display:inline;fill:#e30613;stroke-width:2.26772;stroke-opacity:0.949168" />
    <g
       transform="translate(0,42)"
       id="text1909"
       style="white-space:pre;shape-inside:url(#rect1925);display:inline;fill:#e30613;stroke-width:2.26772;stroke-opacity:0.949168" />
    <g
       aria-label="Alba"
       transform="translate(12.752663,46.118047)"
       id="text1915"
       style="white-space:pre;shape-inside:url(#rect1927);display:inline;fill:#e30613;stroke-width:2.26772;stroke-opacity:0.949168">
      <path
         d="m -732.01543,723.36381 0.84,-2.388 c 0.048,-0.12 0.096,-0.156 0.132,-0.036 l 0.732,2.244 c 0.12,0.384 0.108,0.432 -0.132,0.432 h -1.464 c -0.216,0 -0.18,-0.06 -0.108,-0.252 z m 3.42,3.216 c 0.396,0 0.828,0.072 1.104,0.072 0.228,0 0.348,-0.06 0.348,-0.192 0,-0.12 -0.108,-0.24 -0.48,-0.372 -0.588,-0.216 -0.72,-0.54 -1.068,-1.512 l -1.584,-4.476 c -0.168,-0.468 -0.24,-0.864 -0.444,-0.864 -0.072,0 -0.288,0.336 -0.516,0.36 -0.132,0.012 -0.132,0.168 -0.336,0.684 l -1.836,5.076 c -0.18,0.492 -0.168,0.552 -0.564,0.732 -0.264,0.12 -0.66,0.18 -0.66,0.36 0,0.132 0.168,0.204 0.396,0.204 0.18,0 0.456,-0.072 0.756,-0.072 0.228,0 0.756,0.072 0.984,0.072 0.3,0 0.42,-0.072 0.42,-0.204 0,-0.12 -0.132,-0.252 -0.444,-0.336 -0.348,-0.096 -0.336,-0.288 -0.264,-0.504 l 0.456,-1.308 c 0.048,-0.12 0.132,-0.132 0.192,-0.132 h 2.004 c 0.096,0 0.156,0.036 0.192,0.144 l 0.348,1.14 c 0.06,0.204 0.084,0.432 -0.348,0.636 -0.264,0.12 -0.648,0.18 -0.648,0.36 0,0.132 0.228,0.204 0.384,0.204 0.36,0 0.816,-0.072 1.608,-0.072 z"
         style="font-size:12px;font-family:'EB Garamond SC';-inkscape-font-specification:'EB Garamond SC, Normal'"
         id="path1948" />
      <path
         d="m -728.04683,726.79004 c 0.77558,0.1605 1.85381,0.45724 2.65288,0.62264 0.57579,0.11916 1.1132,-1.05628 1.14239,-1.19729 0.0608,-0.29376 -0.0275,-0.45911 -0.16852,-0.48829 -0.11747,-0.0245 -0.27596,0.0899 -0.34729,0.19771 -0.17834,0.26943 -0.56695,0.66691 -0.89597,0.59881 l -1.01057,-0.20921 c -0.5053,-0.10456 -0.61268,-0.23708 -0.48132,-0.87166 l 0.52295,-2.52644 c 0.13865,-0.6698 0.26065,-0.60777 0.96932,-0.65717 0.11303,-0.0134 0.20545,-0.10453 0.22734,-0.21029 0.0292,-0.14099 -0.19123,-0.26015 -0.36749,-0.29666 -0.39953,-0.0827 -0.65846,-0.075 -1.06974,-0.16019 -0.42302,-0.0876 -0.59888,-0.18524 -1.05716,-0.2801 -0.17629,-0.0364 -0.42588,-0.0146 -0.45507,0.12639 -0.022,0.10574 0.0385,0.22854 0.13694,0.28569 0.63092,0.3266 0.74394,0.31328 0.60529,0.98308 l -0.52294,2.52646 c -0.09,0.43479 -0.12281,0.77111 -0.55888,0.86466 -0.28285,0.064 -0.69252,0.0895 -0.729,0.26574 -0.0245,0.11751 0.21961,0.24154 0.34642,0.28007 0.0823,0.0168 0.50813,0.0316 1.06038,0.14625 z"
         style="font-size:12px;font-family:'EB Garamond SC';-inkscape-font-specification:'EB Garamond SC, Normal'"
         id="path1950" />
      <path
         d="m -723.71209,724.78038 c 0,-0.168 0.132,-0.24 0.36,-0.24 0.648,0 1.152,0.228 1.152,0.984 0,0.588 -0.312,1.02 -0.78,1.02 -0.444,0 -0.732,-0.288 -0.732,-0.732 z m 0,-1.836 c 0,-0.564 0.156,-0.6 0.444,-0.6 0.456,0 0.96,0.252 0.96,0.648 0,0.852 -0.54,0.996 -1.128,0.996 -0.252,0 -0.276,-0.204 -0.276,-0.348 z m -0.552,4.2 c 0.576,0 0.924,0.072 1.272,0.072 0.96,0 1.98,-0.708 1.98,-1.668 0,-0.672 -0.54,-1.248 -1.224,-1.368 -0.132,-0.012 -0.168,-0.108 -0.048,-0.144 0.552,-0.144 0.996,-0.516 0.996,-1.104 0,-1.092 -1.236,-1.272 -2.424,-1.272 -0.504,0 -1.128,0.096 -1.596,0.096 -0.18,0 -0.42,0.072 -0.42,0.216 0,0.108 0.084,0.216 0.192,0.252 0.684,0.192 0.792,0.156 0.792,0.84 v 2.58 c 0,0.444 0.036,0.78 -0.372,0.96 -0.264,0.12 -0.66,0.228 -0.66,0.408 0,0.12 0.264,0.192 0.396,0.204 0.084,0 0.552,-0.072 1.116,-0.072 z"
         style="font-size:12px;font-family:'EB Garamond SC';-inkscape-font-specification:'EB Garamond SC, Normal'"
         id="path1952" />
      <path
         d="m -720.43811,725.13853 0.61188,-1.32805 c 0.0638,-0.13023 0.14779,-0.1401 0.19225,-0.007 l 0.36078,1.31815 c 0.0558,0.15756 0.0908,0.1945 -0.0767,0.19015 l -0.92367,-0.0248 c -0.17993,-0.005 -0.22758,-0.0181 -0.16409,-0.14843 z m 3.32938,2.08203 c -0.3557,-0.16559 -0.59924,-0.48424 -0.64304,-0.64147 l -1.11544,-4.06337 c -0.0873,-0.32646 -0.25135,-0.47492 -0.32333,-0.47685 -0.13195,-0.004 -0.46516,0.33565 -0.82141,0.63821 -0.0736,0.058 -0.1131,0.18904 -0.15166,0.28403 l -1.66925,3.60454 c -0.10217,0.22531 -0.24986,0.36545 -0.57667,0.4647 -0.27815,0.0766 -0.66684,0.24621 -0.67167,0.42615 -0.003,0.11995 0.25876,0.19898 0.3904,0.21452 0.084,0.002 0.43377,-0.0604 0.99757,-0.0453 0.57579,0.0154 0.89774,0.0961 0.98171,0.0983 0.13227,-0.008 0.38612,-0.0737 0.38934,-0.19362 0.005,-0.17993 -0.20821,-0.29369 -0.50553,-0.3977 -0.19032,-0.0651 -0.2338,-0.23435 -0.13011,-0.51968 l 0.19473,-0.54698 c 0.0525,-0.16665 0.15101,-0.26005 0.34296,-0.25489 l 1.16358,0.0312 c 0.19193,0.005 0.30867,0.12833 0.33983,0.30923 l 0.17487,0.64092 c 0.0318,0.15689 -0.1659,0.36768 -0.26282,0.4011 -0.30278,0.0999 -0.43699,0.18035 -0.44182,0.36028 -0.003,0.11995 0.25878,0.19898 0.3904,0.21452 0.0839,0.002 0.3858,-0.0617 0.94959,-0.0466 0.5758,0.0154 0.87376,0.0955 0.95773,0.0977 0.13227,-0.008 0.38612,-0.0737 0.38933,-0.19362 0.005,-0.17993 -0.0882,-0.29047 -0.34925,-0.40551 z"
         style="font-size:12px;font-family:'EB Garamond SC';-inkscape-font-specification:'EB Garamond SC, Normal'"
         id="path1954" />
    </g>
    <g
       aria-label="Pequerul
"
       transform="translate(0,52)"
       id="text1921"
       style="white-space:pre;shape-inside:url(#rect1929);display:inline;fill:#e30613;stroke-width:2.26772;stroke-opacity:0.949168">
      <path
         d="m -730.70934,718.79094 c 0,-0.228 0.264,-0.408 0.6,-0.408 0.804,0 1.512,0.588 1.512,1.392 0,0.624 -0.264,1.056 -0.732,1.452 -0.336,0.288 -0.516,0.312 -0.516,0.432 0,0.144 0.084,0.204 0.216,0.204 0.132,0 0.324,0 0.768,-0.24 0.84,-0.456 1.464,-1.044 1.464,-2.028 0,-1.212 -1.344,-1.74 -2.556,-1.74 -1.068,0 -1.56,0.036 -2.616,0.12 -0.252,0.012 -0.42,0.072 -0.42,0.216 0,0.108 0.084,0.168 0.192,0.204 0.684,0.192 0.984,0.204 0.984,0.888 v 4.236 c 0,0.444 -0.156,0.828 -0.564,1.008 -0.264,0.12 -0.66,0.18 -0.66,0.36 0,0.12 0.264,0.192 0.396,0.204 0.084,0 0.804,-0.072 1.32,-0.072 0.576,0 1.368,0.072 1.452,0.072 0.132,-0.012 0.384,-0.084 0.384,-0.204 0,-0.18 -0.396,-0.24 -0.66,-0.36 -0.408,-0.18 -0.564,-0.564 -0.564,-1.008 z"
         style="font-size:12px;font-family:'EB Garamond SC';-inkscape-font-specification:'EB Garamond SC, Normal'"
         id="path1931" />
      <path
         d="m -728.97056,725.51709 c 0.852,0 1.704,0.072 2.508,0.072 0.204,0 0.528,-0.84 0.528,-1.236 0,-0.3 -0.12,-0.444 -0.264,-0.444 -0.12,0 -0.252,0.132 -0.3,0.264 -0.12,0.288 -0.252,0.66 -0.492,0.66 h -1.008 c -0.3,0 -0.42,-0.24 -0.42,-0.516 v -0.816 c 0,-0.432 0.06,-0.396 0.216,-0.396 h 0.552 c 0.552,0 0.54,0.528 0.768,0.528 0.168,0 0.168,-0.276 0.168,-0.816 0,-0.552 -0.024,-0.804 -0.144,-0.804 -0.24,0 -0.24,0.48 -0.768,0.48 h -0.6 c -0.18,0 -0.192,-0.24 -0.192,-0.48 v -1.032 c 0,-0.228 0.024,-0.288 0.288,-0.288 h 0.84 c 0.18,0 0.336,0.12 0.372,0.216 0.108,0.288 0.24,0.408 0.396,0.408 0.156,0 0.204,-0.24 0.204,-0.372 0,-0.12 -0.036,-0.48 -0.072,-0.588 -0.072,-0.24 -0.06,-0.228 -0.252,-0.228 -0.504,0 -1.86,0.048 -2.28,0.048 -0.432,0 -0.624,-0.048 -1.092,-0.048 -0.18,0 -0.42,0.072 -0.42,0.216 0,0.108 0.084,0.216 0.192,0.252 0.684,0.192 0.792,0.156 0.792,0.84 v 2.58 c 0,0.444 0.036,0.78 -0.372,0.96 -0.264,0.12 -0.66,0.228 -0.66,0.408 0,0.12 0.252,0.204 0.396,0.204 0.24,0 0.816,-0.072 1.116,-0.072 z"
         style="font-size:12px;font-family:'EB Garamond SC';-inkscape-font-specification:'EB Garamond SC, Normal'"
         id="path1933" />
      <path
         d="m -725.69152,721.87521 c 0,-1.116 0.528,-2.328 1.644,-2.328 1.224,0 1.836,1.284 1.836,2.508 0,1.176 -0.336,2.58 -1.512,2.58 -1.332,0 -1.968,-1.428 -1.968,-2.76 z m 1.992,-2.88 c -1.704,0 -3.252,1.32 -3.252,3.06 0,1.416 0.9,2.172 2.016,2.916 0.336,0.24 0.612,0.348 0.996,0.48 2.388,0.876 4.356,2.148 6.192,2.148 0.828,0 2.064,-0.432 2.064,-0.804 0,-0.18 -0.096,-0.228 -0.204,-0.228 -0.228,0 -0.456,0.252 -1.248,0.252 -2.088,0 -4.02,-1.188 -5.58,-1.98 -0.048,-0.012 0.012,-0.096 0.108,-0.132 1.152,-0.42 1.632,-1.824 1.632,-3 0,-1.5 -1.224,-2.712 -2.724,-2.712 z"
         style="font-size:12px;font-family:'EB Garamond SC';-inkscape-font-specification:'EB Garamond SC, Normal'"
         id="path1935" />
      <path
         d="m -721.73076,722.23413 v 1.644 c 0,1.368 0.792,2.628 2.304,2.628 1.416,0 2.4,-1.164 2.4,-2.592 v -1.656 c 0,-0.42 0.108,-0.708 0.684,-0.864 0.156,-0.036 0.204,-0.144 0.204,-0.252 0,-0.144 -0.24,-0.216 -0.42,-0.216 -0.24,0 -0.576,0.06 -0.816,0.06 -0.252,0 -0.48,-0.06 -0.696,-0.06 -0.18,0 -0.42,0.072 -0.42,0.216 0,0.108 0.084,0.24 0.252,0.288 0.276,0.072 0.612,0.468 0.612,0.876 v 1.956 c 0,0.948 -0.528,1.584 -1.536,1.584 -0.864,0 -1.536,-0.756 -1.536,-1.632 v -1.98 c 0,-0.684 0.132,-0.648 0.816,-0.84 0.108,-0.036 0.18,-0.144 0.18,-0.252 0,-0.144 -0.24,-0.216 -0.42,-0.216 -0.408,0 -0.66,0.06 -1.08,0.06 -0.432,0 -0.624,-0.06 -1.092,-0.06 -0.18,0 -0.42,0.072 -0.42,0.216 0,0.108 0.084,0.216 0.192,0.252 0.684,0.192 0.792,0.156 0.792,0.84 z"
         style="font-size:12px;font-family:'EB Garamond SC';-inkscape-font-specification:'EB Garamond SC, Normal'"
         id="path1937" />
      <path
         d="m -715.83656,726.74586 c 0.852,0 1.704,0.072 2.508,0.072 0.204,0 0.528,-0.84 0.528,-1.236 0,-0.3 -0.12,-0.444 -0.264,-0.444 -0.12,0 -0.252,0.132 -0.3,0.264 -0.12,0.288 -0.252,0.66 -0.492,0.66 h -1.008 c -0.3,0 -0.42,-0.24 -0.42,-0.516 v -0.816 c 0,-0.432 0.06,-0.396 0.216,-0.396 h 0.552 c 0.552,0 0.54,0.528 0.768,0.528 0.168,0 0.168,-0.276 0.168,-0.816 0,-0.552 -0.024,-0.804 -0.144,-0.804 -0.24,0 -0.24,0.48 -0.768,0.48 h -0.6 c -0.18,0 -0.192,-0.24 -0.192,-0.48 v -1.032 c 0,-0.228 0.024,-0.288 0.288,-0.288 h 0.84 c 0.18,0 0.336,0.12 0.372,0.216 0.108,0.288 0.24,0.408 0.396,0.408 0.156,0 0.204,-0.24 0.204,-0.372 0,-0.12 -0.036,-0.48 -0.072,-0.588 -0.072,-0.24 -0.06,-0.228 -0.252,-0.228 -0.504,0 -1.86,0.048 -2.28,0.048 -0.432,0 -0.624,-0.048 -1.092,-0.048 -0.18,0 -0.42,0.072 -0.42,0.216 0,0.108 0.084,0.216 0.192,0.252 0.684,0.192 0.792,0.156 0.792,0.84 v 2.58 c 0,0.444 0.036,0.78 -0.372,0.96 -0.264,0.12 -0.66,0.228 -0.66,0.408 0,0.12 0.252,0.204 0.396,0.204 0.24,0 0.816,-0.072 1.116,-0.072 z"
         style="font-size:12px;font-family:'EB Garamond SC';-inkscape-font-specification:'EB Garamond SC, Normal'"
         id="path1939" />
      <path
         d="m -711.89473,723.17376 v -1.152 c 0,-0.252 0.18,-0.396 0.42,-0.396 0.54,0 1.032,0.384 1.032,0.912 0,0.564 -0.48,1.068 -1.056,1.068 -0.276,0 -0.396,-0.18 -0.396,-0.432 z m 0.84,-2.172 c -0.444,0 -0.924,0.084 -1.344,0.084 -0.432,0 -0.624,-0.06 -1.092,-0.06 -0.18,0 -0.42,0.072 -0.42,0.216 0,0.108 0.084,0.216 0.192,0.252 0.684,0.192 0.792,0.156 0.792,0.84 v 2.58 c 0,0.444 0.036,0.78 -0.372,0.96 -0.264,0.12 -0.66,0.228 -0.66,0.408 0,0.12 0.264,0.192 0.396,0.204 0.084,0 0.552,-0.072 1.116,-0.072 0.576,0 1.128,0.072 1.212,0.072 0.132,-0.012 0.384,-0.084 0.384,-0.204 0,-0.18 -0.396,-0.288 -0.66,-0.408 -0.408,-0.18 -0.384,-0.516 -0.384,-0.96 v -0.348 c 0,-0.348 0.036,-0.3 0.18,-0.3 0.288,0 0.468,0.216 0.66,0.408 0.564,0.6 0.912,1.212 1.5,1.788 0.312,0.324 0.828,0.444 1.08,0.444 0.564,0 0.84,-0.144 0.84,-0.42 0,-0.192 -0.288,-0.204 -0.72,-0.396 -0.612,-0.252 -1.14,-1.38 -2.016,-2.124 -0.096,-0.072 -0.072,-0.096 0.024,-0.132 0.624,-0.156 1.032,-0.696 1.032,-1.356 0,-0.9 -0.84,-1.476 -1.74,-1.476 z"
         style="font-size:12px;font-family:'EB Garamond SC';-inkscape-font-specification:'EB Garamond SC, Normal'"
         id="path1941" />
      <path
         d="m -708.96848,722.71568 v 1.644 c 0,1.368 0.792,2.628 2.304,2.628 1.416,0 2.4,-1.164 2.4,-2.592 v -1.656 c 0,-0.42 0.108,-0.708 0.684,-0.864 0.156,-0.036 0.204,-0.144 0.204,-0.252 0,-0.144 -0.24,-0.216 -0.42,-0.216 -0.24,0 -0.576,0.06 -0.816,0.06 -0.252,0 -0.48,-0.06 -0.696,-0.06 -0.18,0 -0.42,0.072 -0.42,0.216 0,0.108 0.084,0.24 0.252,0.288 0.276,0.072 0.612,0.468 0.612,0.876 v 1.956 c 0,0.948 -0.528,1.584 -1.536,1.584 -0.864,0 -1.536,-0.756 -1.536,-1.632 v -1.98 c 0,-0.684 0.132,-0.648 0.816,-0.84 0.108,-0.036 0.18,-0.144 0.18,-0.252 0,-0.144 -0.24,-0.216 -0.42,-0.216 -0.408,0 -0.66,0.06 -1.08,0.06 -0.432,0 -0.624,-0.06 -1.092,-0.06 -0.18,0 -0.42,0.072 -0.42,0.216 0,0.108 0.084,0.216 0.192,0.252 0.684,0.192 0.792,0.156 0.792,0.84 z"
         style="font-size:12px;font-family:'EB Garamond SC';-inkscape-font-specification:'EB Garamond SC, Normal'"
         id="path1943" />
      <path
         d="m -704.29714,727.03507 c 0.77882,0.14388 1.86317,0.41742 2.66559,0.56566 0.57822,0.10683 1.09033,-1.07989 1.11649,-1.22149 0.0545,-0.29501 -0.0373,-0.45841 -0.17895,-0.48457 -0.118,-0.0218 -0.27397,0.0958 -0.34297,0.2051 -0.1725,0.27321 -0.55253,0.67892 -0.88294,0.61788 l -1.01483,-0.18748 c -0.50741,-0.0937 -0.61759,-0.22392 -0.49987,-0.86114 l 0.4687,-2.53707 c 0.12426,-0.67262 0.24752,-0.61324 0.95502,-0.67778 0.11275,-0.0158 0.20317,-0.1089 0.22279,-0.21511 0.0262,-0.1416 -0.19677,-0.256 -0.37377,-0.2887 -0.40121,-0.0741 -0.65992,-0.0609 -1.07293,-0.1372 -0.42481,-0.0785 -0.60272,-0.17236 -1.06293,-0.25739 -0.17701,-0.0327 -0.42609,-0.005 -0.45225,0.13611 -0.0196,0.1062 0.0434,0.22767 0.14302,0.28269 0.63774,0.31306 0.75048,0.29728 0.62622,0.9699 l -0.4687,2.53707 c -0.0807,0.43661 -0.1063,0.77356 -0.54021,0.87644 -0.28141,0.07 -0.69044,0.10431 -0.72314,0.28131 -0.0218,0.11801 0.22473,0.23677 0.35235,0.27255 0.0826,0.0153 0.50869,0.0208 1.06331,0.12322 z"
         style="font-size:12px;font-family:'EB Garamond SC';-inkscape-font-specification:'EB Garamond SC, Normal'"
         id="path1945" />
    </g>
  </g>
</svg>
