<?xml version="1.0" encoding="UTF-8" standalone="no"?>
<!-- Created with Inkscape (http://www.inkscape.org/) -->

<svg
   version="1.1"
   id="svg48"
   width="25.990499"
   height="14.25791"
   viewBox="0 0 25.990499 14.25791"
   sodipodi:docname="loreto.riveira.svg"
   inkscape:version="1.2.2 (b0a8486541, 2022-12-01)"
   xmlns:inkscape="http://www.inkscape.org/namespaces/inkscape"
   xmlns:sodipodi="http://sodipodi.sourceforge.net/DTD/sodipodi-0.dtd"
   xmlns="http://www.w3.org/2000/svg"
   xmlns:svg="http://www.w3.org/2000/svg">
  <defs
     id="defs52">
    <rect
       x="-733.27814"
       y="714.14911"
       width="845.92664"
       height="184.9136"
       id="rect1455" />
    <rect
       x="108.39763"
       y="1162.6178"
       width="161.53374"
       height="21.254438"
       id="rect1449" />
    <rect
       x="-420.83786"
       y="843.80121"
       width="510.10651"
       height="318.81656"
       id="rect1443" />
    <rect
       x="-733.27814"
       y="714.14911"
       width="845.92664"
       height="184.9136"
       id="rect1527" />
    <rect
       x="-733.27814"
       y="714.14911"
       width="845.92664"
       height="184.9136"
       id="rect1541" />
    <rect
       x="-733.27814"
       y="714.14911"
       width="845.92664"
       height="184.9136"
       id="rect1543" />
  </defs>
  <sodipodi:namedview
     id="namedview50"
     pagecolor="#ffffff"
     bordercolor="#000000"
     borderopacity="0.25"
     inkscape:showpageshadow="2"
     inkscape:pageopacity="0.0"
     inkscape:pagecheckerboard="0"
     inkscape:deskcolor="#d1d1d1"
     showgrid="false"
     inkscape:zoom="10.645973"
     inkscape:cx="13.009614"
     inkscape:cy="4.3208826"
     inkscape:window-width="1876"
     inkscape:window-height="1011"
     inkscape:window-x="44"
     inkscape:window-y="32"
     inkscape:window-maximized="1"
     inkscape:current-layer="g54" />
  <g
     inkscape:groupmode="layer"
     inkscape:label="Image"
     id="g54"
     transform="translate(735.0957,-741.97451)">
    <text
       xml:space="preserve"
       id="text1441"
       style="white-space:pre;shape-inside:url(#rect1443);fill:#e30613;stroke-width:2.26772;stroke-opacity:0.949168" />
    <text
       xml:space="preserve"
       id="text1447"
       style="white-space:pre;shape-inside:url(#rect1449);fill:#e30613;stroke-width:2.26772;stroke-opacity:0.949168" />
    <text
       xml:space="preserve"
       id="text1453"
       style="white-space:pre;shape-inside:url(#rect1455);fill:#e30613;stroke-width:2.26772;stroke-opacity:0.949168"><tspan
         x="-733.27734"
         y="725.06694"
         id="tspan1826"><tspan
   style="font-size:12px;font-family:'EB Garamond SC';-inkscape-font-specification:'EB Garamond SC, Normal'"
   id="tspan1824">Loreto</tspan> </tspan></text>
    <text
       xml:space="preserve"
       id="text1525"
       style="white-space:pre;shape-inside:url(#rect1527);fill:#e30613;stroke-width:2.26772;stroke-opacity:0.949168"
       transform="translate(0,10)"><tspan
         x="-733.27734"
         y="725.06694"
         id="tspan1830"><tspan
           style="font-size:12px;font-family:'EB Garamond SC';-inkscape-font-specification:'EB Garamond SC, Normal'"
           id="tspan1828">Riveira</tspan></tspan></text>
    <g
       id="g1588">
      <g
         aria-label="Loreto "
         transform="translate(0,24)"
         id="text1533"
         style="white-space:pre;shape-inside:url(#rect1541);fill:#e30613;stroke-width:2.26772;stroke-opacity:0.949168">
        <path
           id="path1545"
           style="font-size:12px;font-family:'EB Garamond SC';-inkscape-font-specification:'EB Garamond SC, Normal'"
           d="m -732.55664,717.97461 c -0.264,0 -0.43359,0.0728 -0.43359,0.2168 0,0.108 0.0854,0.16712 0.19335,0.20312 0.684,0.192 0.98438,0.20467 0.98438,0.88867 v 4.23633 c 0,0.444 -0.15645,0.82781 -0.56445,1.00781 -0.21584,0.0981 -0.52124,0.15522 -0.625,0.27149 -0.50655,0.0177 -0.95753,0.0483 -1.62696,0.10156 -0.252,0.012 -0.41992,0.0728 -0.41992,0.2168 0,0.108 0.0854,0.16712 0.19336,0.20312 0.684,0.192 0.98242,0.20468 0.98242,0.88867 v 4.1875 c 0,0.444 -0.1545,0.82782 -0.5625,1.00782 -0.264,0.12 -0.66015,0.18133 -0.66015,0.36132 0,0.12 0.26253,0.19113 0.39453,0.20313 0.084,0 0.80431,-0.0723 1.32031,-0.0723 0.576,0 1.36913,0.0723 1.45313,0.0723 0.132,-0.012 0.38281,-0.0831 0.38281,-0.20313 0,-0.17999 -0.39616,-0.24132 -0.66016,-0.36132 -0.408,-0.18 -0.5625,-0.56382 -0.5625,-1.00782 v -1.01953 c 0,-0.264 0.0839,-0.59961 0.33594,-0.59961 0.504,0 0.85209,0.15649 0.99609,0.39649 0.624,1.044 1.18654,1.75209 1.89453,2.49609 0.336,0.36 0.9374,0.5625 1.5254,0.5625 0.41999,0 0.83984,-0.14337 0.83984,-0.35937 0,-0.096 -0.0731,-0.19113 -0.20508,-0.20313 -0.264,-0.024 -0.53959,-0.0854 -0.68359,-0.19336 -0.21404,-0.1541 -0.41977,-0.32569 -0.61719,-0.50976 0.56661,0.002 1.1028,0.0723 1.18555,0.0723 0.132,-0.012 0.38476,-0.0831 0.38476,-0.20312 0,-0.18 -0.39615,-0.28821 -0.66015,-0.40821 -0.408,-0.18 -0.38477,-0.51693 -0.38477,-0.96093 v -2.58008 c 0,-0.19597 0.0114,-0.33158 0.043,-0.43164 0.66207,0.20367 0.97936,0.8607 1.12109,1.1914 l 0.95899,2.375 c 0.3,0.768 0.53984,1.51172 0.83984,1.51172 0.444,0 0.46841,-0.73061 0.81641,-1.47461 l 0.97265,-2.11328 c 0.0933,-0.20421 0.1791,-0.38035 0.26368,-0.53515 v 2.52148 c 0,0.444 0.0369,0.78094 -0.3711,0.96094 -0.264,0.12 -0.66016,0.2282 -0.66016,0.4082 0,0.12 0.25249,0.20313 0.39649,0.20313 0.24,0 0.81523,-0.0723 1.11523,-0.0723 0.852,0 1.70382,0.0723 2.50782,0.0723 0.16474,0 0.40671,-0.54741 0.49414,-0.9668 0.19571,-0.0175 0.44655,-0.0352 0.7207,-0.0352 0.55233,0 1.07078,0.0649 1.1875,0.0703 -0.0491,0.046 -0.11078,0.0864 -0.18945,0.12109 -0.264,0.12 -0.66016,0.2282 -0.66016,0.4082 0,0.12 0.26449,0.19113 0.39649,0.20313 0.084,0 0.55123,-0.0723 1.11523,-0.0723 0.576,0 1.12889,0.0723 1.21289,0.0723 0.132,-0.012 0.38281,-0.0831 0.38281,-0.20313 0,-0.18 -0.39615,-0.2882 -0.66015,-0.4082 -0.408,-0.18 -0.38282,-0.51694 -0.38282,-0.96094 v -0.34765 c 0,-0.348 0.0357,-0.29883 0.17969,-0.29883 0.288,0 0.46816,0.21425 0.66016,0.40625 0.1363,0.145 0.25944,0.29177 0.37695,0.4375 -0.0665,0.0562 -0.11133,0.11611 -0.11133,0.17578 0,0.12 0.26449,0.19112 0.39649,0.20312 0.002,0 0.008,-0.002 0.01,-0.002 0.25379,0.33024 0.50507,0.65815 0.82813,0.97461 0.312,0.324 0.82808,0.44336 1.08008,0.44336 0.564,0 0.83984,-0.14392 0.83984,-0.41992 0,-0.192 -0.2887,-0.20449 -0.7207,-0.39649 -0.25005,-0.10296 -0.48681,-0.35457 -0.73829,-0.66406 0.38623,0.0181 0.6139,0.0644 0.68165,0.0644 0.132,-0.012 0.38281,-0.0831 0.38281,-0.20312 0,-0.18 -0.21563,-0.28877 -0.51563,-0.38477 -0.192,-0.06 -0.24053,-0.22762 -0.14453,-0.51562 l 0.18164,-0.55274 c 0.048,-0.168 0.14394,-0.26367 0.33594,-0.26367 h 1.16406 c 0.192,0 0.31166,0.12078 0.34766,0.30078 l 0.1914,0.63477 c 0.036,0.156 -0.15595,0.3722 -0.25195,0.4082 -0.3,0.108 -0.43164,0.19305 -0.43164,0.37305 0,0.12 0.26449,0.19112 0.39649,0.20312 0.084,0 0.38326,-0.0723 0.94726,-0.0723 0.576,0 0.87694,0.0723 0.96094,0.0723 0.132,-0.012 0.38281,-0.0831 0.38281,-0.20312 0,-0.18 -0.0954,-0.28849 -0.35937,-0.39649 -0.36,-0.156 -0.61216,-0.469 -0.66016,-0.625 l -1.22461,-4.03125 c -0.0863,-0.29124 -0.22992,-0.43638 -0.31055,-0.46289 0.29874,-0.48332 0.47071,-1.05199 0.47071,-1.66406 0,-1.5 -1.33204,-2.56836 -2.83203,-2.56836 -0.37436,0 -0.73062,0.0703 -1.0586,0.19727 0.0818,-0.24786 0.14063,-0.51607 0.14063,-0.59961 0,-0.18 -0.06,-0.34766 -0.25196,-0.34766 -0.18,0 -0.61204,0.33594 -1.24804,0.33594 h -2.58008 c -0.588,0 -0.79125,-0.3125 -1.03125,-0.3125 -0.11977,0 -0.22318,0.14318 -0.29883,0.35937 -0.61079,0.0871 -1.4706,0.21906 -1.79101,0.25782 -0.42888,0.0519 -0.62524,0.0278 -1.08985,0.084 -0.12258,0.0148 -0.26742,0.0673 -0.3418,0.14453 -0.30219,-0.0552 -0.60923,-0.0991 -0.88085,-0.17187 -0.36291,-0.0972 -0.53993,-0.19237 -0.87696,-0.29492 -0.3712,-1.07124 -1.48088,-1.7793 -2.70117,-1.7793 -1.155,0 -2.13984,0.66433 -2.64258,1.625 v -0.57227 c 0,-0.684 0.32382,-0.69667 1.00781,-0.88867 0.108,-0.036 0.18164,-0.0951 0.18164,-0.20312 0,-0.144 -0.24187,-0.2168 -0.42187,-0.2168 -0.408,0 -0.89836,0.0606 -1.31836,0.0606 -0.432,0 -0.86403,-0.0606 -1.33203,-0.0606 z m 4.25,0.80859 c 1.14,0 1.87109,1.17641 1.87109,2.31641 0,0.64491 -0.17605,1.35283 -0.54492,1.82422 -0.0518,0.0381 -0.0972,0.087 -0.125,0.14453 -0.2404,0.24393 -0.54837,0.39453 -0.92578,0.39453 -1.224,0 -1.77539,-1.41467 -1.77539,-2.63867 0,-0.972 0.528,-2.04102 1.5,-2.04102 z m 8.81641,1.75977 h 0.93945 c 0.18,0 0.25195,0.037 0.25195,0.54101 v 2.56836 c 0,0.444 0.0349,0.77899 -0.37305,0.95899 -0.0157,0.007 -0.0342,0.0144 -0.0508,0.0215 0.0456,-0.21937 0.0692,-0.44513 0.0508,-0.59765 -0.036,-0.29783 -0.17344,-0.4255 -0.3164,-0.40821 -0.11913,0.0144 -0.23383,0.16202 -0.26563,0.29883 -0.0845,0.30032 -0.16994,0.68407 -0.4082,0.71289 l -1.00195,0.1211 c -0.29783,0.036 -0.44538,-0.18694 -0.47852,-0.46094 l -0.0977,-0.81055 c -0.0519,-0.42887 0.0111,-0.39924 0.16601,-0.41797 l 0.54883,-0.0664 c 0.548,-0.0663 0.59982,0.45902 0.82617,0.43164 0.16678,-0.0202 0.1332,-0.29399 0.0684,-0.83008 -0.0663,-0.54801 -0.1211,-0.79566 -0.24023,-0.78125 -0.23827,0.0288 -0.1809,0.50495 -0.70508,0.56836 l -0.59571,0.0723 c -0.17869,0.0216 -0.21922,-0.21486 -0.24804,-0.45312 l -0.12305,-1.02539 c -0.0274,-0.22635 -0.0102,-0.28861 0.25195,-0.32031 l 0.82422,-0.0996 c -0.0102,0.10596 -0.0156,0.21634 -0.0156,0.32617 0,0.204 0.11911,0.31054 0.28711,0.31054 0.0724,0 0.16458,-0.12409 0.26562,-0.26367 0.0999,0.1191 0.20166,0.16528 0.3086,0.15235 0.15487,-0.0187 0.17405,-0.26153 0.1582,-0.39258 -0.004,-0.035 -0.0144,-0.0933 -0.0273,-0.15625 z m 2.48046,0 c 0.0276,-9e-5 0.0569,0 0.0898,0 h 0.91211 c 0.21458,0 0.31589,0.14498 0.40234,0.27734 -0.85553,0.5482 -1.41601,1.52624 -1.41601,2.6211 0,0.44349 0.10446,0.86382 0.29101,1.23437 -0.0523,-0.021 -0.10546,-0.0431 -0.15234,-0.0645 -0.408,-0.18 -0.39677,-0.51499 -0.38477,-0.95899 v -2.59179 c 0,-0.483 0.0649,-0.51693 0.25781,-0.51758 z m 2.71289,0.36523 c 1.14,0 1.8711,1.17641 1.8711,2.31641 0,1.092 -0.50371,2.36328 -1.5957,2.36328 -1.224,0 -1.77539,-1.41467 -1.7754,-2.63867 0,-0.972 0.52801,-2.04102 1.5,-2.04102 z m -9.57226,0.13868 c 0.0534,-0.004 0.11001,0.002 0.16797,0.0176 0.5216,0.13976 0.89837,0.63843 0.76172,1.14844 -0.14598,0.54478 -0.74051,0.90689 -1.29688,0.75781 -0.2666,-0.0714 -0.33475,-0.27611 -0.26953,-0.51953 l 0.29688,-1.11328 c 0.0489,-0.18256 0.1796,-0.2798 0.33984,-0.29101 z m -1.61914,1.07617 -0.46484,1.74218 c -0.11491,0.42888 -0.16869,0.76181 -0.60938,0.83008 -0.10727,0.0179 -0.23114,0.0304 -0.34766,0.0469 0.12351,-0.31013 0.33894,-1.0543 0.33985,-1.33203 0.46659,-0.32433 0.84271,-0.76711 1.08203,-1.28711 z m -5.18555,0.54883 c 0.44788,0.78615 1.27515,1.32031 2.2461,1.32031 0.333,0 0.6562,-0.05 0.95898,-0.14258 -0.21224,0.3924 -0.48824,0.67773 -1.06836,0.67773 h -1.30859 c -0.576,0 -0.82813,-0.5169 -0.82813,-1.1289 z m 8.35742,0.52539 0.11329,0.92773 c 0.0533,0.44079 0.12953,0.77036 -0.25391,0.99805 -0.007,0.004 -0.0148,0.008 -0.0215,0.0117 -0.20608,-0.48296 -0.42705,-1.03937 -0.76171,-1.52344 -0.0741,-0.0944 -0.0434,-0.11118 0.0586,-0.1211 0.32899,0.006 0.6274,-0.1026 0.86523,-0.29296 z m -2.41601,0.32812 c 0.0291,-0.002 0.065,0.0134 0.11719,0.0273 0.27819,0.0745 0.39549,0.32931 0.53125,0.56446 0.35335,0.65822 0.53398,1.28113 0.87695,1.91992 -0.23502,-0.006 -0.45067,-0.0586 -0.6543,-0.0586 -0.18,0 -0.41992,0.0708 -0.41992,0.21484 0,0.108 0.072,0.25306 0.25195,0.28906 0.276,0.084 0.39596,0.28733 0.25196,0.61133 l -0.95899,2.08789 c -0.168,0.348 -0.27733,0.22744 -0.36133,0.0234 l -0.85156,-2.11133 c -0.168,-0.408 -0.12034,-0.47933 0.34766,-0.61133 0.168,-0.036 0.27734,-0.18106 0.27734,-0.28906 0,-0.144 -0.23992,-0.21484 -0.41992,-0.21484 -0.24,0 -0.75608,0.0586 -1.08008,0.0586 -0.13444,0 -0.29295,-0.009 -0.45312,-0.0215 0.0724,-0.0498 0.11718,-0.1352 0.11718,-0.2207 0,-0.144 -0.23992,-0.21484 -0.41992,-0.21484 -0.408,0 -0.66008,0.0586 -1.08008,0.0586 -0.432,0 -0.62379,-0.0586 -1.09179,-0.0586 -0.0119,0 -0.0248,0.001 -0.0371,0.002 -0.20131,-0.23611 -0.48151,-0.41617 -0.80078,-0.54492 1.27637,0.0135 2.9155,0.0547 3.28906,0.0547 0.0352,0 0.0635,-0.005 0.0898,-0.008 0.0725,0.0594 0.17008,0.11041 0.23633,0.13477 0.0811,0.0217 0.55092,0.0728 1.0957,0.21875 0.55637,0.14908 1.07122,0.36107 1.15235,0.38281 0.13061,0.0226 0.39277,0.0184 0.42383,-0.0976 0.0466,-0.17387 -0.30731,-0.38022 -0.53125,-0.56446 -0.34751,-0.27946 -0.23797,-0.59652 -0.12305,-1.02539 l 0.0898,-0.33789 c 0.0563,-0.21009 0.0864,-0.2654 0.13477,-0.26953 z m 7.16601,1.63086 c 0.47599,0.0155 0.88747,0.0684 0.95899,0.0684 0.0562,-0.005 0.13406,-0.0229 0.20508,-0.0488 0.2199,0.26636 0.48972,0.48736 0.79687,0.64844 -0.0299,-10e-4 -0.0598,-0.004 -0.0898,-0.004 -0.444,0 -0.92375,0.084 -1.34375,0.084 -0.432,0 -0.6238,-0.0586 -1.0918,-0.0586 -0.045,0 -0.0948,0.005 -0.14258,0.0137 0.11043,-0.13159 0.3194,-0.16963 0.70313,-0.27735 0.108,-0.036 0.17968,-0.14395 0.17969,-0.25195 0,-0.0812 -0.0769,-0.13842 -0.17579,-0.17383 z m -14.60156,0.15234 c 0.804,0 1.51172,0.56515 1.51172,1.36914 0,0.624 -0.26442,1.03174 -0.73242,1.42774 -0.108,0.12 -0.52672,0.24023 -0.88672,0.24023 -0.132,0 -0.27705,-0.0614 -0.37305,-0.19336 -0.048,-0.072 -0.11914,-0.21534 -0.11914,-0.52734 v -1.9082 c 0,-0.228 0.26361,-0.40821 0.59961,-0.40821 z m 11.79883,0.13868 c 0.0341,0.0612 0.0907,0.11226 0.1582,0.13476 0.684,0.192 0.79297,0.15585 0.79297,0.83985 v 2.58007 c 0,0.41263 0.0301,0.73238 -0.29297,0.91993 -0.0471,-0.0649 -0.11004,-0.0977 -0.17773,-0.0977 -0.12,0 -0.25083,0.13167 -0.29883,0.26367 -0.007,0.0168 -0.0144,0.0354 -0.0215,0.0527 -0.13658,0.0657 -0.24024,0.13839 -0.24024,0.23047 0,0.0432 0.0341,0.0792 0.084,0.10938 -0.0831,0.15117 -0.18128,0.26758 -0.31446,0.26758 h -1.00781 c -0.3,0 -0.41992,-0.23963 -0.41992,-0.51563 v -0.8164 c 0,-0.432 0.0588,-0.39649 0.21484,-0.39649 h 0.55274 c 0.552,0 0.53957,0.5293 0.76757,0.5293 0.168,0 0.16797,-0.27641 0.16797,-0.81641 0,-0.552 -0.0245,-0.80469 -0.14453,-0.80469 -0.24,0 -0.23958,0.48047 -0.76758,0.48047 h -0.59961 c -0.18,0 -0.1914,-0.24047 -0.1914,-0.48047 v -0.97265 c 0.50422,0.12359 0.78886,0.0527 0.85742,-0.20313 0.0145,-0.054 0.002,-0.0997 -0.0332,-0.14453 h 0.30273 c 0.18,0 0.33705,0.1208 0.37305,0.2168 0.108,0.288 0.23853,0.4082 0.39453,0.4082 0.156,0 0.20508,-0.24105 0.20508,-0.37304 0,-0.12 -0.0363,-0.4799 -0.0723,-0.5879 -0.072,-0.24 -0.06,-0.22656 -0.25195,-0.22656 -0.33575,0 -1.0382,0.0209 -1.60156,0.0352 -0.0145,-0.0117 -0.0307,-0.0236 -0.0488,-0.0332 -0.0865,-0.0999 -0.16696,-0.22219 -0.24219,-0.36329 0.23886,-0.0496 0.50237,-0.10574 0.67773,-0.12695 0.39289,-0.0475 0.78764,-0.0789 1.17774,-0.10937 z m 7.70508,0.1582 -1.54102,3.57617 c -0.0429,0.10178 -0.0962,0.18524 -0.16992,0.25781 -0.19282,-0.22989 -0.40235,-0.45524 -0.63672,-0.65429 -0.096,-0.072 -0.0726,-0.0968 0.0234,-0.13282 0.624,-0.156 1.0332,-0.69547 1.0332,-1.35546 0,-0.52397 -0.28566,-0.9368 -0.70117,-1.19141 0.0786,0.007 0.15754,0.0117 0.23828,0.0117 0.64531,0 1.24826,-0.18849 1.75391,-0.51172 z m -16.82422,0.58594 c 0.25045,0.0975 0.30078,0.22772 0.30078,0.69531 v 2.58008 c 0,0.33965 0.0204,0.61683 -0.15234,0.80859 -0.35963,-0.41763 -0.68479,-0.8582 -0.96875,-1.28125 -0.156,-0.228 -0.29883,-0.49356 -0.29883,-0.60156 0,-0.108 0.0471,-0.0948 0.20312,-0.21485 0.564,-0.408 0.94727,-0.91168 0.94727,-1.67968 0,-0.10785 -0.011,-0.20987 -0.0312,-0.30664 z m 17.3164,0.0762 c 0.0345,-0.003 0.0658,0.0278 0.0898,0.0937 l 0.39648,1.30664 c 0.06,0.156 0.0957,0.19336 -0.0723,0.19336 h -0.92383 c -0.18,0 -0.22797,-0.0125 -0.16797,-0.14453 l 0.57617,-1.34375 c 0.03,-0.066 0.0671,-0.10247 0.10156,-0.10547 z m -6.21289,0.0352 c 0.008,0.004 0.0167,0.007 0.0254,0.01 0.684,0.192 0.79102,0.15584 0.79102,0.83984 v 2.58008 c 0,0.15011 0.003,0.28659 -0.008,0.41016 -0.13137,-0.0637 -0.29503,-0.12026 -0.42578,-0.17969 -0.408,-0.18 -0.38477,-0.51694 -0.38477,-0.96094 v -2.58007 c 0,-0.0427 8.2e-4,-0.0818 0.002,-0.11915 z m 2.26954,0.14258 c 0.54,0 1.03125,0.38411 1.03125,0.91211 0,0.564 -0.47869,1.06836 -1.05469,1.06836 -0.276,0 -0.39649,-0.18159 -0.39649,-0.43359 v -1.15039 c 0,-0.252 0.17993,-0.39649 0.41993,-0.39649 z" />
      </g>
      <g
         aria-label="Riveira"
         transform="translate(0,34)"
         id="text1539"
         style="white-space:pre;shape-inside:url(#rect1543);fill:#e30613;stroke-width:2.26772;stroke-opacity:0.949168" />
    </g>
  </g>
</svg>
